<svg xmlns="http://www.w3.org/2000/svg" xmlns:xlink="http://www.w3.org/1999/xlink" width="1080" zoomAndPan="magnify" viewBox="0 0 810 809.999993" height="1080" preserveAspectRatio="xMidYMid meet" version="1.2"><defs/><g id="a56d5b1e01"><rect x="0" width="810" y="0" height="809.999993" style="fill:#ffffff;fill-opacity:1;stroke:none;"/><rect x="0" width="810" y="0" height="809.999993" style="fill:#ffffff;fill-opacity:1;stroke:none;"/><path style=" stroke:none;fill-rule:nonzero;fill:#ecaaa1;fill-opacity:1;" d="M 786.671875 404.996094 C 786.671875 411.242188 786.519531 417.484375 786.214844 423.726562 C 785.90625 429.964844 785.449219 436.191406 784.835938 442.40625 C 784.222656 448.625 783.457031 454.820312 782.542969 461 C 781.625 467.179688 780.558594 473.332031 779.339844 479.457031 C 778.121094 485.585938 776.753906 491.675781 775.234375 497.738281 C 773.71875 503.796875 772.050781 509.8125 770.238281 515.792969 C 768.425781 521.769531 766.464844 527.699219 764.363281 533.578125 C 762.257812 539.460938 760.011719 545.289062 757.621094 551.058594 C 755.230469 556.828125 752.699219 562.539062 750.027344 568.183594 C 747.359375 573.832031 744.550781 579.410156 741.605469 584.917969 C 738.660156 590.425781 735.582031 595.859375 732.371094 601.21875 C 729.160156 606.574219 725.820312 611.851562 722.347656 617.046875 C 718.878906 622.238281 715.28125 627.34375 711.5625 632.363281 C 707.839844 637.378906 704 642.300781 700.035156 647.128906 C 696.074219 651.957031 691.996094 656.6875 687.800781 661.316406 C 683.605469 665.945312 679.300781 670.464844 674.882812 674.882812 C 670.464844 679.300781 665.945312 683.605469 661.316406 687.800781 C 656.6875 691.996094 651.957031 696.074219 647.128906 700.035156 C 642.300781 704 637.378906 707.839844 632.359375 711.5625 C 627.34375 715.28125 622.238281 718.878906 617.046875 722.347656 C 611.851562 725.820312 606.574219 729.160156 601.21875 732.371094 C 595.859375 735.582031 590.425781 738.660156 584.917969 741.605469 C 579.410156 744.550781 573.832031 747.359375 568.183594 750.027344 C 562.539062 752.699219 556.828125 755.230469 551.058594 757.621094 C 545.289062 760.011719 539.460938 762.257812 533.578125 764.363281 C 527.699219 766.464844 521.769531 768.425781 515.792969 770.238281 C 509.8125 772.050781 503.796875 773.71875 497.738281 775.234375 C 491.675781 776.753906 485.585938 778.121094 479.457031 779.339844 C 473.332031 780.558594 467.179688 781.625 461 782.542969 C 454.820312 783.457031 448.625 784.222656 442.40625 784.835938 C 436.191406 785.449219 429.964844 785.90625 423.726562 786.214844 C 417.484375 786.519531 411.242188 786.671875 404.996094 786.671875 C 398.75 786.671875 392.507812 786.519531 386.269531 786.214844 C 380.03125 785.90625 373.800781 785.449219 367.585938 784.835938 C 361.371094 784.222656 355.171875 783.457031 348.992188 782.542969 C 342.816406 781.625 336.664062 780.558594 330.535156 779.339844 C 324.410156 778.121094 318.316406 776.753906 312.257812 775.234375 C 306.199219 773.71875 300.179688 772.050781 294.203125 770.238281 C 288.226562 768.425781 282.296875 766.464844 276.414062 764.363281 C 270.53125 762.257812 264.707031 760.011719 258.9375 757.621094 C 253.164062 755.230469 247.457031 752.699219 241.808594 750.027344 C 236.164062 747.359375 230.585938 744.550781 225.078125 741.605469 C 219.566406 738.660156 214.132812 735.582031 208.777344 732.371094 C 203.417969 729.160156 198.144531 725.820312 192.949219 722.347656 C 187.753906 718.878906 182.648438 715.28125 177.632812 711.5625 C 172.617188 707.839844 167.691406 704 162.863281 700.035156 C 158.035156 696.074219 153.308594 691.996094 148.679688 687.800781 C 144.050781 683.605469 139.527344 679.300781 135.113281 674.882812 C 130.695312 670.464844 126.390625 665.945312 122.195312 661.316406 C 118 656.6875 113.921875 651.957031 109.957031 647.128906 C 105.996094 642.300781 102.152344 637.378906 98.433594 632.359375 C 94.710938 627.34375 91.117188 622.238281 87.644531 617.046875 C 84.175781 611.851562 80.835938 606.574219 77.621094 601.21875 C 74.410156 595.859375 71.332031 590.425781 68.390625 584.917969 C 65.445312 579.410156 62.636719 573.832031 59.964844 568.183594 C 57.296875 562.539062 54.765625 556.828125 52.375 551.058594 C 49.984375 545.289062 47.738281 539.460938 45.632812 533.578125 C 43.527344 527.699219 41.570312 521.769531 39.757812 515.792969 C 37.941406 509.8125 36.277344 503.796875 34.757812 497.738281 C 33.242188 491.675781 31.875 485.585938 30.65625 479.457031 C 29.4375 473.332031 28.367188 467.179688 27.453125 461 C 26.535156 454.820312 25.769531 448.625 25.160156 442.40625 C 24.546875 436.191406 24.085938 429.964844 23.78125 423.726562 C 23.472656 417.484375 23.320312 411.242188 23.320312 404.996094 C 23.320312 398.75 23.472656 392.507812 23.78125 386.269531 C 24.085938 380.03125 24.546875 373.804688 25.160156 367.585938 C 25.769531 361.371094 26.535156 355.171875 27.453125 348.992188 C 28.367188 342.816406 29.4375 336.664062 30.65625 330.535156 C 31.875 324.410156 33.242188 318.316406 34.757812 312.257812 C 36.277344 306.199219 37.941406 300.179688 39.757812 294.203125 C 41.570312 288.226562 43.527344 282.296875 45.632812 276.414062 C 47.738281 270.53125 49.984375 264.707031 52.375 258.9375 C 54.765625 253.164062 57.296875 247.457031 59.964844 241.808594 C 62.636719 236.164062 65.445312 230.585938 68.390625 225.078125 C 71.332031 219.566406 74.410156 214.132812 77.621094 208.777344 C 80.835938 203.417969 84.175781 198.144531 87.644531 192.949219 C 91.117188 187.753906 94.710938 182.648438 98.433594 177.632812 C 102.152344 172.617188 105.996094 167.691406 109.957031 162.863281 C 113.921875 158.035156 118 153.308594 122.195312 148.679688 C 126.390625 144.050781 130.695312 139.527344 135.113281 135.113281 C 139.527344 130.695312 144.050781 126.390625 148.679688 122.195312 C 153.308594 118 158.035156 113.921875 162.863281 109.957031 C 167.691406 105.996094 172.617188 102.152344 177.632812 98.433594 C 182.648438 94.710938 187.753906 91.117188 192.949219 87.644531 C 198.144531 84.175781 203.417969 80.835938 208.777344 77.621094 C 214.132812 74.410156 219.566406 71.332031 225.078125 68.390625 C 230.585938 65.445312 236.164062 62.636719 241.808594 59.964844 C 247.457031 57.296875 253.164062 54.765625 258.9375 52.375 C 264.707031 49.984375 270.53125 47.738281 276.414062 45.632812 C 282.296875 43.527344 288.226562 41.570312 294.203125 39.757812 C 300.179688 37.941406 306.199219 36.277344 312.257812 34.757812 C 318.316406 33.242188 324.410156 31.875 330.535156 30.65625 C 336.664062 29.4375 342.816406 28.367188 348.992188 27.453125 C 355.171875 26.535156 361.371094 25.769531 367.585938 25.160156 C 373.800781 24.546875 380.03125 24.085938 386.269531 23.78125 C 392.507812 23.472656 398.75 23.320312 404.996094 23.320312 C 411.242188 23.320312 417.484375 23.472656 423.726562 23.78125 C 429.964844 24.085938 436.191406 24.546875 442.40625 25.160156 C 448.625 25.769531 454.820312 26.535156 461 27.453125 C 467.179688 28.367188 473.332031 29.4375 479.457031 30.65625 C 485.585938 31.875 491.675781 33.242188 497.738281 34.757812 C 503.796875 36.277344 509.8125 37.941406 515.792969 39.757812 C 521.769531 41.570312 527.699219 43.527344 533.578125 45.632812 C 539.460938 47.738281 545.289062 49.984375 551.058594 52.375 C 556.828125 54.765625 562.539062 57.296875 568.183594 59.964844 C 573.832031 62.636719 579.410156 65.445312 584.917969 68.390625 C 590.425781 71.332031 595.859375 74.410156 601.21875 77.621094 C 606.574219 80.835938 611.851562 84.175781 617.046875 87.644531 C 622.238281 91.117188 627.34375 94.710938 632.359375 98.433594 C 637.378906 102.152344 642.300781 105.996094 647.128906 109.957031 C 651.957031 113.921875 656.6875 118 661.316406 122.195312 C 665.945312 126.390625 670.464844 130.695312 674.882812 135.113281 C 679.300781 139.527344 683.605469 144.050781 687.800781 148.679688 C 691.996094 153.308594 696.074219 158.035156 700.035156 162.863281 C 704 167.691406 707.839844 172.617188 711.5625 177.632812 C 715.28125 182.648438 718.878906 187.753906 722.347656 192.949219 C 725.820312 198.144531 729.160156 203.417969 732.371094 208.777344 C 735.582031 214.132812 738.660156 219.566406 741.605469 225.078125 C 744.550781 230.585938 747.359375 236.164062 750.027344 241.808594 C 752.699219 247.457031 755.230469 253.164062 757.621094 258.9375 C 760.011719 264.707031 762.257812 270.53125 764.363281 276.414062 C 766.464844 282.296875 768.425781 288.226562 770.238281 294.203125 C 772.050781 300.179688 773.71875 306.199219 775.234375 312.257812 C 776.753906 318.316406 778.121094 324.410156 779.339844 330.535156 C 780.558594 336.664062 781.625 342.816406 782.542969 348.992188 C 783.457031 355.171875 784.222656 361.371094 784.835938 367.585938 C 785.449219 373.804688 785.90625 380.03125 786.214844 386.269531 C 786.519531 392.507812 786.671875 398.75 786.671875 404.996094 Z M 786.671875 404.996094 "/><g style="fill:#2e3a3a;fill-opacity:1;"><g transform="translate(128.311645, 526.807739)"><path style="stroke:none" d="M 203.875 -50.6875 L 91.6875 -50.6875 L 73.984375 0 L 1.859375 0 L 104.921875 -278.234375 L 190.46875 -278.234375 L 293.515625 0 L 221.40625 0 Z M 109.578125 -102.3125 L 185.796875 -102.3125 L 147.78125 -213.015625 Z M 109.578125 -102.3125 "/></g></g><g style="fill:#2e3a3a;fill-opacity:1;"><g transform="translate(407.699036, 526.807739)"><path style="stroke:none" d="M 1.859375 -278.234375 L 258.296875 -278.234375 L 258.296875 -224.015625 L 166.046875 -224.015625 L 166.046875 0 L 94.296875 0 L 94.296875 -224.015625 L 1.859375 -224.015625 Z M 1.859375 -278.234375 "/></g></g></g></svg>